<svg width="73" height="73" viewBox="0 0 73 73" fill="none" xmlns="http://www.w3.org/2000/svg">
<path d="M34.7358 46.1421L52.4688 63.875C53.9896 65.3472 56.0281 66.1627 58.1448 66.1455C60.2614 66.1283 62.2864 65.2799 63.7831 63.7831C65.2799 62.2864 66.1283 60.2614 66.1455 58.1448C66.1627 56.0281 65.3472 53.9896 63.875 52.4687L45.9991 34.5929M34.7358 46.1421L42.3278 36.9258C43.2921 35.7578 44.5787 35.0217 46.0022 34.5959C47.6751 34.0971 49.5396 34.0241 51.3038 34.1701C53.6819 34.3743 56.072 33.9531 58.237 32.9483C60.402 31.9435 62.2666 30.39 63.6458 28.442C65.025 26.494 65.8709 24.2193 66.0994 21.8434C66.328 19.4676 65.9313 17.0733 64.9487 14.8981L54.9842 24.8656C53.3171 24.4801 51.7917 23.6342 50.5818 22.4243C49.3718 21.2144 48.526 19.689 48.1405 18.0219L58.105 8.05737C55.9298 7.0748 53.5355 6.67811 51.1596 6.90666C48.7838 7.13521 46.509 7.98106 44.561 9.36027C42.613 10.7395 41.0596 12.6041 40.0548 14.7691C39.05 16.9341 38.6288 19.3242 38.833 21.7023C39.1098 24.9751 38.617 28.5886 36.0833 30.6752L35.773 30.9337M34.7358 46.1421L20.5769 63.3366C19.8907 64.1731 19.0369 64.8566 18.0705 65.3432C17.1042 65.8298 16.0467 66.1087 14.966 66.1619C13.8854 66.2151 12.8056 66.0414 11.7961 65.652C10.7866 65.2627 9.86988 64.6663 9.10483 63.9013C8.33977 63.1362 7.74339 62.2194 7.35404 61.21C6.9647 60.2005 6.79104 59.1207 6.84422 58.0401C6.89741 56.9594 7.17627 55.9019 7.66286 54.9356C8.14945 53.9692 8.83298 53.1154 9.66946 52.4292L30.4653 35.3046L17.9732 22.8125H13.6875L6.84376 11.4062L11.4063 6.84375L22.8125 13.6875V17.9732L35.77 30.9307L30.4623 35.3016M55.8906 55.8906L47.9063 47.9062M14.8038 58.1719H14.8281V58.1962H14.8038V58.1719Z" stroke="#8D448B" stroke-width="1.5" stroke-linecap="round" stroke-linejoin="round"/>
</svg>
