<svg width="73" height="65" viewBox="0 0 73 65" fill="none" xmlns="http://www.w3.org/2000/svg">
<path d="M69.4107 43.6928L69.4111 43.693C71.3079 44.7813 72.5005 46.876 72.5004 49.1677V62.0878C72.5004 63.0756 71.7016 63.8744 70.7138 63.8744H59.781V60.3012H68.4272H68.9272V59.8012V49.1677C68.9272 48.1851 68.4522 47.2634 67.634 46.7918L67.6335 46.7914C64.5799 45.0368 61.2923 43.7016 57.8786 42.7386C56.8864 41.1716 55.5533 39.8137 53.8965 38.8601L53.8963 38.86C53.3506 38.5463 52.7921 38.2563 52.2283 37.9809C58.331 38.7924 64.1829 40.6871 69.4107 43.6928Z" fill="#8D448B" stroke="white"/>
<path d="M51.288 43.6929C37.0486 35.5063 17.8295 35.5062 3.58981 43.6929H51.288ZM51.288 43.6929C53.1876 44.7858 54.3778 46.8787 54.3778 49.1658V62.0882C54.3778 63.0759 53.579 63.8748 52.5912 63.8748H2.2866C1.29882 63.8748 0.5 63.0759 0.5 62.0882V49.1681C0.5 46.8787 1.69026 44.7858 3.58969 43.693L51.288 43.6929ZM50.3048 60.3016H50.8048V59.8016V49.1658C50.8048 48.1851 50.3295 47.2632 49.5088 46.7918C36.3408 39.2227 18.5373 39.2227 5.36925 46.7918C4.54849 47.2633 4.07333 48.1853 4.07333 49.1681V59.8016V60.3016H4.57333H50.3048Z" fill="#8D448B" stroke="white"/>
<path d="M45.5622 4.42394C45.2596 4.42394 44.9435 4.46362 44.6669 4.49861C43.8729 3.34524 42.951 2.30431 41.9537 1.34628C43.1387 1.03799 44.3424 0.850616 45.5622 0.850616C54.1109 0.850616 61.0683 7.80797 61.0683 16.3567C61.0683 24.9054 54.1108 31.8627 45.5622 31.8627C44.3426 31.8627 43.139 31.6753 41.954 31.3671C42.9513 30.4091 43.8732 29.368 44.6671 28.2147C44.9435 28.2497 45.2599 28.2897 45.5622 28.2897C52.142 28.2897 57.4951 22.9366 57.4951 16.3568C57.4951 9.77702 52.1422 4.42394 45.5622 4.42394Z" fill="#8D448B" stroke="white"/>
<path d="M42.945 16.3567C42.945 24.9054 35.9875 31.8628 27.4389 31.8628C18.8904 31.8628 11.9329 24.9054 11.9329 16.3567C11.9329 7.80798 18.8902 0.850616 27.4389 0.850616C35.9876 0.850616 42.945 7.80798 42.945 16.3567ZM39.3718 16.3567C39.3718 9.7769 34.0189 4.42382 27.4389 4.42382C20.8592 4.42382 15.5061 9.7769 15.5061 16.3567C15.5061 22.9365 20.8592 28.2896 27.4389 28.2896C34.0187 28.2896 39.3718 22.9365 39.3718 16.3567Z" fill="#8D448B" stroke="white"/>
</svg>
